<svg width="400" height="200" viewBox="0 0 400 200" fill="none" xmlns="http://www.w3.org/2000/svg">
<path d="M306.459 47.7856H319.889V93.2867H340.022L372.839 47.7856H388.508L351.96 98.5095L390 152.218H373.585L340.768 105.971H319.889V152.218H306.459V47.7856Z" fill="black"/>
<path d="M286.762 47.7856H210.01V60.4697H286.762V47.7856Z" fill="black"/>
<path d="M286.762 139.534H210.01V152.218H286.762V139.534Z" fill="black"/>
<path d="M267.574 93.2866H210.01V105.971H267.574V93.2866Z" fill="black"/>
<path d="M188.671 47.7856H111.92V60.4697H188.671V47.7856Z" fill="black"/>
<path d="M188.671 139.534H111.92V152.218H188.671V139.534Z" fill="black"/>
<path d="M169.484 93.2866H111.92V105.971H169.484V93.2866Z" fill="black"/>
<path d="M23.4426 122.572C24.4872 126.302 26.2779 129.735 28.8147 132.719C33.1422 137.942 40.6034 142.717 53.2751 142.717C71.182 142.717 79.3769 134.51 79.3769 124.81C79.3769 117.088 72.923 113.133 56.3839 107.811C31.3888 99.7654 14.4892 95.6493 14.4892 74.5589C14.4892 58.8903 28.6655 45 51.7828 45C69.3913 45 79.5261 52.312 85.1967 59.624C88.4796 63.9515 90.718 68.7267 92.061 74.0988H78.6308C77.7355 71.1143 76.094 68.4282 73.8556 65.8914C69.8266 61.8624 63.2607 57.6841 51.7828 57.6841C36.1143 57.6841 27.9069 65.8914 27.9069 74.8449C27.9069 86.1859 41.9713 88.9715 59.3933 94.9778C84.948 103.77 92.7947 107.923 92.7947 125.196C92.7947 141.61 78.6184 155.401 53.2627 155.401C34.3111 155.401 23.281 147.194 17.312 138.987C13.7306 134.211 11.343 128.69 10 122.572H23.4426Z" fill="black"/>
</svg>
