<?xml version="1.0" encoding="utf-8"?>
<!-- Generator: Adobe Illustrator 24.1.2, SVG Export Plug-In . SVG Version: 6.00 Build 0)  -->
<svg version="1.1" xmlns="http://www.w3.org/2000/svg" xmlns:xlink="http://www.w3.org/1999/xlink" x="0px" y="0px"
	 viewBox="0 0 552.53 420.61" style="enable-background:new 0 0 552.53 420.61;" xml:space="preserve">
<g id="guias">
</g>
<g id="logo">
	<g>
		<polygon points="361.91,168.29 372.71,168.29 372.71,204.88 388.9,204.88 415.29,168.29 427.89,168.29 398.5,209.08 
			429.09,252.27 415.89,252.27 389.5,215.08 372.71,215.08 372.71,252.27 361.91,252.27 		"/>
		<rect x="284.35" y="168.29" width="61.72" height="10.2"/>
		<rect x="284.35" y="242.07" width="61.72" height="10.2"/>
		<rect x="284.35" y="204.88" width="46.29" height="10.2"/>
		<rect x="205.47" y="168.29" width="61.72" height="10.2"/>
		<rect x="205.47" y="242.07" width="61.72" height="10.2"/>
		<rect x="205.47" y="204.88" width="46.29" height="10.2"/>
		<path d="M134.32,228.43c0.84,3,2.28,5.76,4.32,8.16c3.48,4.2,9.48,8.04,19.67,8.04c14.4,0,20.99-6.6,20.99-14.4
			c0-6.21-5.19-9.39-18.49-13.67c-20.1-6.47-33.69-9.78-33.69-26.74c0-12.6,11.4-23.77,29.99-23.77c14.16,0,22.31,5.88,26.87,11.76
			c2.64,3.48,4.44,7.32,5.52,11.64h-10.8c-0.72-2.4-2.04-4.56-3.84-6.6c-3.24-3.24-8.52-6.6-17.75-6.6c-12.6,0-19.2,6.6-19.2,13.8
			c0,9.12,11.31,11.36,25.32,16.19c20.55,7.07,26.86,10.41,26.86,24.3c0,13.2-11.4,24.29-31.79,24.29c-15.24,0-24.11-6.6-28.91-13.2
			c-2.88-3.84-4.8-8.28-5.88-13.2H134.32z"/>
	</g>
</g>
</svg>
